<svg xmlns="http://www.w3.org/2000/svg" version="1" viewBox="0 0 300 299" preserveAspectRatio="xMidYMid meet" style="width: 200px; height: 200px; transform-origin: 50% 50%; transform: scaleX(1) scaleY(1) rotate(0deg);"><g fill="#000000" style="fill:#000000;stroke:none" stroke="none" class="">
    <path d="M181.8 1c-6.8 2-9.5 5.5-15.3 20.2-4.1 10.2-11.5 20.6-21.7 30.4-10.9 10.4-23.3 19-48.8 33.9-36.9 21.6-48.5 29.7-63.5 44.9C18 144.9 8.8 159.4 3 176.9c-3.3 9.9-3.2 13 .5 19.6 1.3 2.2 24.1 25.6 50.7 52.1 44.9 44.7 48.6 48.1 53.2 49.4 3.9 1.1 5.8 1.1 9.3.2 8.4-2.3 10.4-4.6 16.4-19.6 4.2-10.5 11.1-20.5 20.1-29.3 12.6-12.4 21.7-18.8 53.3-37.3 25.4-14.9 38.5-23.6 50.2-33.3 18.2-15.1 30.5-31.9 38.7-52.3 4.6-11.6 4.9-18.3 1-23.9-4.3-6.4-98.1-98.8-102.2-100.7-4-1.9-8-2.1-12.4-.8zm98.6 113.5c-1.6 5.3-9.9 21.4-14.1 27.3-6.8 9.6-19.3 21.7-31.3 30.4-5.8 4.2-23.5 15.3-39.3 24.8-15.9 9.4-33.3 20.5-38.7 24.6-11.7 8.8-23.3 20.2-29.5 28.9-3.7 5.2-11.1 19.4-14.1 27.3-.9 2.2-4.4-1.1-47.8-44.2l-46.8-46.4 1.2-3.9c2.1-6.3 8.9-19.4 13.6-26 13.5-18.9 28.9-31 71.4-55.8 26.7-15.6 41-25.6 52.6-36.8 13.6-13 22.1-25.6 27.9-41l1.8-4.9 46.9 46.9c38.1 38.1 46.7 47.1 46.2 48.8z" fill="#000000" style="fill:#000000;stroke:none" stroke="none" class=""/>
    <path d="M193.9 46.9c-.9.3-5.1 5.2-9.2 10.7-7.4 9.9-18.3 20.9-25.9 26.3-4.3 3-5.4 5.2-3.8 8.1 2 3.7 5.4 2.4 15-5.6 12.4-10.4 30.6-32.3 29.8-36-.4-2.3-3.9-4.3-5.9-3.5zm-59.2 60.5c-2.1.8-5.6 2.6-7.7 4-3.4 2.2-4.3 2.4-6.4 1.4-2-.8-2.9-.8-4.1.2-1.9 1.6-1.9 2.9 0 5.1 1.5 1.5 1.3 2.1-1.5 6.2-1.6 2.5-3.8 7.4-4.7 11-1.4 5.4-1.5 7.1-.5 10.5 3.7 12.3 17 17.3 31.8 12.1 10.2-3.6 9.2-3.9 17.4 5.6 4.1 4.7 7.6 9 7.8 9.5.4 1.1-5.1 4-7.7 4-1.2 0-4.8-1.4-8.1-3.2l-6.1-3.1-2.7 2c-7 5.2-1.8 13.6 10 16.2 6.5 1.5 13.7-.2 19.2-4.4l4.4-3.3 2.3 2.4c1.5 1.6 3.2 2.4 4.9 2.2 3.5-.4 3.8-3.7.5-6.8-1.4-1.3-2.5-2.7-2.5-3.1 0-.3 1.6-3.2 3.5-6.4 4-6.7 6.1-14.7 5.1-19.9-.9-4.5-6.4-10.9-12-13.9-6.2-3.2-16.1-2.9-24.9.7l-6.9 2.9-6.1-6.8c-9.4-10.4-9.3-10.1-5.5-12.1 2.8-1.5 4-1.5 9.9-.4 3.7.7 7.4 1 8.3.7 2.5-1 3.5-4.8 2.2-8.1-2.3-5.8-11.5-8.2-19.9-5.2zm-.8 27.8c3.4 3.7 6 7.1 5.7 7.6-.3.5-2.6 1.5-5 2.1-5 1.2-8.1.5-11-2.8-3.1-3.5-.8-14.8 2.9-13.9.6.2 4 3.3 7.4 7zm40.2 15.7c3.3 3.3 3.7 7.1 1.5 12.5-2.4 5.8-3.4 5.5-11.2-3-4-4.3-7.3-8.3-7.4-8.7 0-1.4 6.3-3.6 10.3-3.7 3 0 4.5.7 6.8 2.9zM137 208.1c-5.5 3.4-27 25.7-32.3 33.5-4.2 6.2-4.7 7.5-3.8 9.3.8 1.4 2.1 2.1 3.9 2.1 2.3 0 3.7-1.2 7.8-6.7 8.1-11.2 15.8-19.4 24.3-26.3 6.5-5.2 8.1-7 8.1-9.2 0-1.7-.7-3.1-1.9-3.8-2.5-1.3-2-1.4-6.1 1.1z" fill="#000000" style="fill:#000000;stroke:none" stroke="none" class=""/></g>
</svg>